<?xml version="1.0" encoding="utf-8"?>
<!-- Generator: Adobe Illustrator 16.0.0, SVG Export Plug-In . SVG Version: 6.00 Build 0)  -->
<!DOCTYPE svg PUBLIC "-//W3C//DTD SVG 1.1//EN" "http://www.w3.org/Graphics/SVG/1.1/DTD/svg11.dtd">
<svg version="1.1" id="Layer_1" xmlns="http://www.w3.org/2000/svg" xmlns:xlink="http://www.w3.org/1999/xlink" x="0px" y="0px"
	 width="480px" height="270px" viewBox="0 0 480 270" enable-background="new 0 0 480 270" xml:space="preserve">
<g>
	<circle fill="#FFFFFF" cx="39.814" cy="135" r="39.814"/>
	<path fill="#4A90E2" d="M39.814,103.148c5.513-0.009,10.934,1.42,15.727,4.146c-0.931,8.739-5.285,11.78-15.727,11.78
		c-8.795-0.003-15.929,7.124-15.932,15.919s7.124,15.928,15.919,15.932c0.004,0,0.008,0,0.013,0c10.441,0,14.796,3.041,15.727,11.78
		c-15.3,8.684-34.743,3.321-43.427-11.979c-8.684-15.3-3.321-34.743,11.979-43.427C28.886,104.579,34.303,103.149,39.814,103.148z"
		/>
	<path fill="#4A90E2" d="M67.52,119.273c5.528,9.756,5.528,21.697,0,31.453c-8.739-0.931-11.78-5.285-11.78-15.727
		S58.781,120.204,67.52,119.273z"/>
</g>
<g>
	<path fill="#FFFFFF" d="M120.296,127.006v21.266h-6.312v-21.266h-7.71v-5.277h21.369l0.776,5.277H120.296z"/>
	<path fill="#FFFFFF" d="M149.84,148.271v-11.072h-10.09v11.072h-6.105v-26.543h6.105v10.142h10.09v-10.142h6.157v26.543H149.84z"/>
	<path fill="#FFFFFF" d="M163.449,148.271v-26.543h17.281v4.915h-11.227v5.537h8.743l0.725,4.864h-9.468v6.312h11.538v4.916H163.449
		z"/>
	<path fill="#FFFFFF" d="M216.432,148.271l-11.59-17.488v17.488h-5.537v-26.543h5.898l10.969,16.557v-16.557h5.537v26.543H216.432z"
		/>
	<path fill="#FFFFFF" d="M232.574,148.271h-5.898l9.779-26.801h7.399l9.521,26.026l-6.004,1.189l-2.121-6.365h-10.658
		L232.574,148.271z M239.973,126.592h-0.155l-3.622,10.866h7.399L239.973,126.592z"/>
	<path fill="#FFFFFF" d="M275.469,148.271l-11.59-17.488v17.488h-5.537v-26.543h5.898l10.969,16.557v-16.557h5.537v26.543H275.469z"
		/>
	<path fill="#FFFFFF" d="M299.58,148.789c-7.037,0-12.729-5.329-12.729-13.763c0-8.485,5.742-13.814,12.729-13.814
		c7.088,0,12.728,5.278,12.728,13.763C312.308,143.408,306.617,148.789,299.58,148.789z M299.58,126.23
		c-4.191,0-6.571,3.777-6.571,8.744c0,4.915,2.483,8.848,6.571,8.848c4.191,0,6.57-3.829,6.57-8.796
		C306.15,130.111,303.668,126.23,299.58,126.23L299.58,126.23z"/>
	<path fill="#FFFFFF" d="M342.111,148.789c-7.916,0-13.039-5.329-13.039-13.711c0-8.434,5.381-13.867,12.883-13.867
		c2.627-0.103,5.229,0.543,7.502,1.863l-0.827,5.433c-1.749-1.355-3.894-2.1-6.104-2.122c-4.347,0-7.141,3.104-7.141,8.641
		c0,5.484,2.949,8.641,7.244,8.641c2.311-0.052,4.556-0.771,6.467-2.069l0.776,5.07
		C347.524,148.063,344.842,148.797,342.111,148.789z"/>
	<path fill="#FFFFFF" d="M355.822,148.271v-26.543h17.281v4.915h-11.229v5.537h8.744l0.726,4.864h-9.47v6.312h11.539v4.916H355.822z
		"/>
	<path fill="#FFFFFF" d="M396.801,148.271l-11.59-17.488v17.488h-5.535v-26.543h5.898l10.968,16.557v-16.557h5.536v26.543H396.801z"
		/>
	<path fill="#FFFFFF" d="M421.43,127.006v21.266h-6.313v-21.266h-7.709v-5.277h21.369l0.775,5.277H421.43z"/>
	<path fill="#FFFFFF" d="M434.778,148.271v-26.543h17.281v4.915h-11.228v5.537h8.744l0.725,4.864h-9.469v6.312h11.539v4.916H434.778
		z"/>
	<path fill="#FFFFFF" d="M473.688,148.633l-6.52-9.571h-2.483v9.21h-6.054v-26.543h9.262c6.675,0,10.451,3.156,10.451,8.485
		c0.075,3.34-1.984,6.356-5.122,7.503l6.777,9.727L473.688,148.633z M467.531,126.54h-2.897v7.917h2.846
		c3.155,0,4.863-1.396,4.863-4.087C472.343,127.886,470.583,126.54,467.531,126.54L467.531,126.54z"/>
</g>
</svg>
